<svg width="32" height="32" viewBox="0 0 32 32" fill="none" xmlns="http://www.w3.org/2000/svg">
<g clip-path="url(#clip0_218_514)">
<path fill-rule="evenodd" clip-rule="evenodd" d="M16.0003 0.666504C12.202 0.668475 8.52813 2.01378 5.63578 4.46187C2.74344 6.90995 0.821164 10.3012 0.212685 14.0292C-0.395793 17.7572 0.349195 21.5788 2.31445 24.8107C4.27971 28.0427 7.33708 30.4742 10.9399 31.6705C11.7347 31.818 12.0341 31.3254 12.0341 30.9065C12.0341 30.4876 12.0182 29.2732 12.0129 27.9455C7.56182 28.907 6.62127 26.0672 6.62127 26.0672C5.89532 24.2231 4.84614 23.7384 4.84614 23.7384C3.39425 22.7531 4.95478 22.7715 4.95478 22.7715C6.56299 22.8848 7.40817 24.4128 7.40817 24.4128C8.83357 26.8443 11.1518 26.1409 12.0632 25.73C12.2063 24.6999 12.6223 23.9992 13.0806 23.6014C9.52507 23.201 5.78934 21.8363 5.78934 15.7404C5.76731 14.1594 6.35732 12.6306 7.43731 11.4701C7.27304 11.0697 6.7246 9.45215 7.59361 7.25508C7.59361 7.25508 8.9369 6.82831 11.9944 8.88576C14.6168 8.17267 17.3838 8.17267 20.0063 8.88576C23.0611 6.82831 24.4017 7.25508 24.4017 7.25508C25.2734 9.44688 24.7249 11.0644 24.5607 11.4701C25.6441 12.6308 26.2353 14.1623 26.2113 15.7457C26.2113 21.8548 22.4676 23.201 18.9067 23.5935C19.479 24.0887 19.9904 25.0555 19.9904 26.5413C19.9904 28.6699 19.9718 30.3823 19.9718 30.9065C19.9718 31.3306 20.2606 31.8259 21.0713 31.6705C24.6746 30.474 27.7322 28.0421 29.6974 24.8096C31.6627 21.5771 32.4073 17.7549 31.7981 14.0266C31.1889 10.2982 29.2657 6.90698 26.3724 4.45931C23.4791 2.01165 19.8044 0.667225 16.0056 0.666504H16.0003Z" fill="#9A9A9A"/>
</g>
<defs>
<clipPath id="clip0_218_514">
<rect width="32" height="32" fill="white"/>
</clipPath>
</defs>
</svg>
