<svg width="32" height="32" viewBox="0 0 32 32" fill="none" xmlns="http://www.w3.org/2000/svg">
<path d="M16 11.9999C18.2 11.9999 20 13.7999 20 15.9999C20 18.1999 18.2 19.9999 16 19.9999C13.8 19.9999 12 18.1999 12 15.9999C12 13.7999 13.8 11.9999 16 11.9999ZM16 9.33325C12.32 9.33325 9.33337 12.3199 9.33337 15.9999C9.33337 19.6799 12.32 22.6666 16 22.6666C19.68 22.6666 22.6667 19.6799 22.6667 15.9999C22.6667 12.3199 19.68 9.33325 16 9.33325ZM2.66671 17.3333H5.33337C6.06671 17.3333 6.66671 16.7333 6.66671 15.9999C6.66671 15.2666 6.06671 14.6666 5.33337 14.6666H2.66671C1.93337 14.6666 1.33337 15.2666 1.33337 15.9999C1.33337 16.7333 1.93337 17.3333 2.66671 17.3333ZM26.6667 17.3333H29.3334C30.0667 17.3333 30.6667 16.7333 30.6667 15.9999C30.6667 15.2666 30.0667 14.6666 29.3334 14.6666H26.6667C25.9334 14.6666 25.3334 15.2666 25.3334 15.9999C25.3334 16.7333 25.9334 17.3333 26.6667 17.3333ZM14.6667 2.66659V5.33325C14.6667 6.06659 15.2667 6.66658 16 6.66658C16.7334 6.66658 17.3334 6.06659 17.3334 5.33325V2.66659C17.3334 1.93325 16.7334 1.33325 16 1.33325C15.2667 1.33325 14.6667 1.93325 14.6667 2.66659ZM14.6667 26.6666V29.3333C14.6667 30.0666 15.2667 30.6666 16 30.6666C16.7334 30.6666 17.3334 30.0666 17.3334 29.3333V26.6666C17.3334 25.9333 16.7334 25.3333 16 25.3333C15.2667 25.3333 14.6667 25.9333 14.6667 26.6666ZM7.98671 6.10658C7.46671 5.58658 6.61337 5.58658 6.10671 6.10658C5.58671 6.62658 5.58671 7.47992 6.10671 7.98658L7.52004 9.39992C8.04004 9.91992 8.89337 9.91992 9.40004 9.39992C9.90671 8.87992 9.92004 8.02658 9.40004 7.51992L7.98671 6.10658ZM24.48 22.5999C23.96 22.0799 23.1067 22.0799 22.6 22.5999C22.08 23.1199 22.08 23.9733 22.6 24.4799L24.0134 25.8933C24.5334 26.4133 25.3867 26.4133 25.8934 25.8933C26.4134 25.3733 26.4134 24.5199 25.8934 24.0133L24.48 22.5999ZM25.8934 7.98658C26.4134 7.46658 26.4134 6.61325 25.8934 6.10658C25.3734 5.58658 24.52 5.58658 24.0134 6.10658L22.6 7.51992C22.08 8.03992 22.08 8.89325 22.6 9.39992C23.12 9.90659 23.9734 9.91992 24.48 9.39992L25.8934 7.98658ZM9.40004 24.4799C9.92004 23.9599 9.92004 23.1066 9.40004 22.5999C8.88004 22.0799 8.02671 22.0799 7.52004 22.5999L6.10671 24.0133C5.58671 24.5333 5.58671 25.3866 6.10671 25.8933C6.62671 26.3999 7.48004 26.4133 7.98671 25.8933L9.40004 24.4799Z" fill="#9A9A9A"/>
</svg>
