<svg width="32" height="32" viewBox="0 0 32 32" fill="none" xmlns="http://www.w3.org/2000/svg">
<circle cx="16" cy="16" r="16" fill="#DCDCDC"/>
<path d="M12.7571 23L9.55711 17.44H7.81711V23H5.53711V9.1H10.3371C11.4038 9.1 12.3038 9.28667 13.0371 9.66C13.7838 10.0333 14.3371 10.5333 14.6971 11.16C15.0704 11.7867 15.2571 12.4867 15.2571 13.26C15.2571 14.1667 14.9904 14.9933 14.4571 15.74C13.9371 16.4733 13.1304 16.9733 12.0371 17.24L15.4771 23H12.7571ZM7.81711 15.62H10.3371C11.1904 15.62 11.8304 15.4067 12.2571 14.98C12.6971 14.5533 12.9171 13.98 12.9171 13.26C12.9171 12.54 12.7038 11.98 12.2771 11.58C11.8504 11.1667 11.2038 10.96 10.3371 10.96H7.81711V15.62ZM27.1538 9.1V10.96H23.4538V23H21.1738V10.96H17.4538V9.1H27.1538Z" fill="black"/>
</svg>
