<svg width="32" height="32" viewBox="0 0 32 32" fill="none" xmlns="http://www.w3.org/2000/svg">
<g clip-path="url(#clip0_2_183)">
<path fill-rule="evenodd" clip-rule="evenodd" d="M16.0003 0.666687C12.202 0.668658 8.52813 2.01396 5.63578 4.46205C2.74344 6.91014 0.821164 10.3014 0.212685 14.0294C-0.395793 17.7573 0.349195 21.579 2.31445 24.8109C4.27971 28.0429 7.33708 30.4744 10.9399 31.6706C11.7347 31.8182 12.0341 31.3255 12.0341 30.9067C12.0341 30.4878 12.0182 29.2734 12.0129 27.9456C7.56182 28.9072 6.62127 26.0673 6.62127 26.0673C5.89532 24.2233 4.84614 23.7385 4.84614 23.7385C3.39425 22.7533 4.95478 22.7717 4.95478 22.7717C6.56299 22.885 7.40817 24.4129 7.40817 24.4129C8.83357 26.8445 11.1518 26.1411 12.0632 25.7301C12.2063 24.7001 12.6223 23.9994 13.0806 23.6016C9.52507 23.2011 5.78934 21.8365 5.78934 15.7406C5.76731 14.1596 6.35732 12.6308 7.43731 11.4703C7.27304 11.0698 6.7246 9.45233 7.59361 7.25526C7.59361 7.25526 8.9369 6.82849 11.9944 8.88594C14.6168 8.17285 17.3838 8.17285 20.0063 8.88594C23.0611 6.82849 24.4017 7.25526 24.4017 7.25526C25.2734 9.44706 24.7249 11.0646 24.5607 11.4703C25.6441 12.6309 26.2353 14.1625 26.2113 15.7459C26.2113 21.855 22.4676 23.2011 18.9067 23.5937C19.479 24.0889 19.9904 25.0557 19.9904 26.5415C19.9904 28.6701 19.9718 30.3824 19.9718 30.9067C19.9718 31.3308 20.2606 31.8261 21.0713 31.6706C24.6746 30.4742 27.7322 28.0423 29.6974 24.8098C31.6627 21.5773 32.4073 17.7551 31.7981 14.0268C31.1889 10.2984 29.2657 6.90716 26.3724 4.45949C23.4791 2.01183 19.8044 0.667409 16.0056 0.666687H16.0003Z" fill="#636363"/>
</g>
<defs>
<clipPath id="clip0_2_183">
<rect width="32" height="32" fill="white"/>
</clipPath>
</defs>
</svg>
