<svg width="32" height="32" viewBox="0 0 32 32" fill="none" xmlns="http://www.w3.org/2000/svg">
<path d="M16 12C18.2 12 20 13.8 20 16C20 18.2 18.2 20 16 20C13.8 20 12 18.2 12 16C12 13.8 13.8 12 16 12ZM16 9.33333C12.32 9.33333 9.33337 12.32 9.33337 16C9.33337 19.68 12.32 22.6667 16 22.6667C19.68 22.6667 22.6667 19.68 22.6667 16C22.6667 12.32 19.68 9.33333 16 9.33333ZM2.66671 17.3333H5.33337C6.06671 17.3333 6.66671 16.7333 6.66671 16C6.66671 15.2667 6.06671 14.6667 5.33337 14.6667H2.66671C1.93337 14.6667 1.33337 15.2667 1.33337 16C1.33337 16.7333 1.93337 17.3333 2.66671 17.3333ZM26.6667 17.3333H29.3334C30.0667 17.3333 30.6667 16.7333 30.6667 16C30.6667 15.2667 30.0667 14.6667 29.3334 14.6667H26.6667C25.9334 14.6667 25.3334 15.2667 25.3334 16C25.3334 16.7333 25.9334 17.3333 26.6667 17.3333ZM14.6667 2.66667V5.33333C14.6667 6.06667 15.2667 6.66667 16 6.66667C16.7334 6.66667 17.3334 6.06667 17.3334 5.33333V2.66667C17.3334 1.93333 16.7334 1.33333 16 1.33333C15.2667 1.33333 14.6667 1.93333 14.6667 2.66667ZM14.6667 26.6667V29.3333C14.6667 30.0667 15.2667 30.6667 16 30.6667C16.7334 30.6667 17.3334 30.0667 17.3334 29.3333V26.6667C17.3334 25.9333 16.7334 25.3333 16 25.3333C15.2667 25.3333 14.6667 25.9333 14.6667 26.6667ZM7.98671 6.10667C7.46671 5.58667 6.61337 5.58667 6.10671 6.10667C5.58671 6.62667 5.58671 7.48 6.10671 7.98667L7.52004 9.4C8.04004 9.92 8.89337 9.92 9.40004 9.4C9.90671 8.88 9.92004 8.02667 9.40004 7.52L7.98671 6.10667ZM24.48 22.6C23.96 22.08 23.1067 22.08 22.6 22.6C22.08 23.12 22.08 23.9733 22.6 24.48L24.0134 25.8933C24.5334 26.4133 25.3867 26.4133 25.8934 25.8933C26.4134 25.3733 26.4134 24.52 25.8934 24.0133L24.48 22.6ZM25.8934 7.98667C26.4134 7.46667 26.4134 6.61333 25.8934 6.10667C25.3734 5.58667 24.52 5.58667 24.0134 6.10667L22.6 7.52C22.08 8.04 22.08 8.89333 22.6 9.4C23.12 9.90667 23.9734 9.92 24.48 9.4L25.8934 7.98667ZM9.40004 24.48C9.92004 23.96 9.92004 23.1067 9.40004 22.6C8.88004 22.08 8.02671 22.08 7.52004 22.6L6.10671 24.0133C5.58671 24.5333 5.58671 25.3867 6.10671 25.8933C6.62671 26.4 7.48004 26.4133 7.98671 25.8933L9.40004 24.48Z" fill="#636363"/>
</svg>
